C:\GBW_MyPrograms\KinderuniversiteitApp\Resultaten\New_group\Olaf\Olaf_v2.mot
version=1
nRows=9
nColumns=29
inDegrees=yes
endheader
                time	         pelvis_tilt	           pelvis_tx	           pelvis_ty	       hip_flexion_l	       hip_flexion_r	        knee_angle_l	        knee_angle_r	       ankle_angle_l	       ankle_angle_r	    lumbar_extension	hamstrings_r/activation	bifemsh_r/activation	glut_max_r/activation	iliopsoas_r/activation	rect_fem_r/activation	  vasti_r/activation	gastroc_r/activation	 soleus_r/activation	tib_ant_r/activation	hamstrings_l/activation	bifemsh_l/activation	glut_max_l/activation	iliopsoas_l/activation	rect_fem_l/activation	  vasti_l/activation	gastroc_l/activation	 soleus_l/activation	tib_ant_l/activation	
          1.07540779	        -11.45066280	          1.40827545	          0.90756057	         16.67815515	         22.24360618	        -32.37083559	         -3.13785252	         16.83567751	         -3.18035845	         -5.04725976	          0.94682960	          0.60605341	          0.94718877	          0.12332135	          0.15735298	          0.80203973	          0.20885504	          0.32641325	          0.91617942	          0.24121409	          0.79506425	          0.09099824	          0.95971375	          0.88403041	          0.05254810	          0.58318421	          0.43894637	          0.81966269	
          1.08257717	        -11.22934406	          1.41955842	          0.90664630	         17.78284559	         21.69551643	        -35.23704173	         -3.30924350	         14.85497442	         -2.79088789	         -5.32723706	          0.94521880	          0.56063881	          0.94528769	          0.12401288	          0.15314772	          0.85256111	          0.19224103	          0.29668604	          0.92565069	          0.21767107	          0.76511985	          0.08995361	          0.95942527	          0.90941529	          0.05616004	          0.52445469	          0.39419308	          0.87187253	
          1.08974656	        -11.00367546	          1.43036684	          0.90637153	         18.90083013	         21.16247096	        -38.09949696	         -3.52558420	         13.17218783	         -2.02974286	         -5.65026286	          0.94398171	          0.53717915	          0.94335379	          0.12467979	          0.14950190	          0.88464549	          0.17734391	          0.26964909	          0.93294603	          0.19666626	          0.73306426	          0.08983759	          0.95895855	          0.92687893	          0.06539527	          0.47166834	          0.35405328	          0.90781985	
          1.09691594	        -10.77402083	          1.44072352	          0.90700659	         20.00885019	         20.63033602	        -40.85586413	         -3.71323299	         11.70395954	         -1.33917057	         -6.01699928	          0.94333414	          0.53404653	          0.94189698	          0.12535271	          0.14750940	          0.90590227	          0.16409357	          0.24529541	          0.93857162	          0.17813240	          0.70278090	          0.09028774	          0.95846448	          0.93838619	          0.07834195	          0.42479160	          0.31843719	          0.92897627	
          1.10408533	        -10.54313781	          1.45068023	          0.90806309	         21.08416892	         20.05481293	        -43.41169435	         -3.94308577	         10.45487254	         -0.71282993	         -6.42023308	          0.94245821	          0.54188296	          0.94042452	          0.12609669	          0.14655348	          0.84663580	          0.15246823	          0.22346042	          0.94081665	          0.16201672	          0.67731873	          0.09097968	          0.95806606	          0.94554446	          0.09760241	          0.38322489	          0.28689864	          0.93680187	
          1.11125471	        -10.31541271	          1.46030132	          0.90875615	         22.12570670	         19.55253287	        -45.72732900	         -4.17130276	          9.53269880	          0.08968197	         -6.84468614	          0.94149365	          0.55501641	          0.93886375	          0.12692671	          0.14611183	          0.77382134	          0.14246276	          0.20387409	          0.93928808	          0.14833489	          0.65639495	          0.09178571	          0.95774260	          0.94944479	          0.16985884	          0.34609487	          0.25875605	          0.94010308	
          1.11842410	        -10.09951183	          1.46963662	          0.90977152	         23.12769519	         18.97551659	        -47.79602215	         -4.39143810	          8.89751636	          0.87527872	         -7.27528241	          0.94069947	          0.56863334	          0.93711172	          0.12784759	          0.14584699	          0.70177516	          0.13428376	          0.18636355	          0.93756818	          0.13698779	          0.63658709	          0.09268066	          0.95741207	          0.95111845	          0.41587209	          0.31282388	          0.23356854	          0.94262498	
          1.12559348	         -9.89838095	          1.47873310	          0.91104574	         24.07148444	         18.42693209	        -49.58433179	         -4.55421964	          8.46722807	          1.58741611	         -7.70339490	          0.93955852	          0.58000106	          0.93437900	          0.12892292	          0.14568485	          0.63546718	          0.12838984	          0.17073253	          0.93735456	          0.12773764	          0.61546056	          0.09367433	          0.95708012	          0.95154049	          0.56971364	          0.28297799	          0.21101078	          0.94482548	
          1.13276287	         -9.71431273	          1.48763114	          0.91230909	         24.94873216	         17.92631486	        -51.05936104	         -4.62797856	          8.20953639	          2.18617661	         -8.12219520	          0.93931080	          0.59258867	          0.93216360	          0.13000318	          0.14526706	          0.57540531	          0.12447370	          0.15686643	          0.93827403	          0.11998686	          0.59268939	          0.09478460	          0.95660524	          0.95121997	          0.69074125	          0.25622663	          0.19083404	          0.94661996	
